<mxfile host="app.diagrams.net" modified="2022-06-04T23:30:27.069Z" agent="5.0 (Macintosh; Intel Mac OS X 10_15_7) AppleWebKit/537.36 (KHTML, like Gecko) Chrome/101.0.4951.64 Safari/537.36" etag="QqtLHrqlFjvvrxHut5v9" version="18.0.2" type="github">
  <diagram id="wK2k5UwERb_qMLPXQcVo" name="Page-1">
    <mxGraphModel dx="1833" dy="988" grid="1" gridSize="10" guides="1" tooltips="1" connect="1" arrows="1" fold="1" page="1" pageScale="1" pageWidth="1169" pageHeight="1654" math="0" shadow="0">
      <root>
        <mxCell id="0" />
        <mxCell id="1" parent="0" />
        <mxCell id="boY7fO-AjZwTI4k-ok0t-47" value="" style="rounded=0;whiteSpace=wrap;html=1;fontSize=14;fontColor=#FF3399;gradientColor=none;" vertex="1" parent="1">
          <mxGeometry x="190" y="130" width="160" height="350" as="geometry" />
        </mxCell>
        <mxCell id="boY7fO-AjZwTI4k-ok0t-27" value="" style="rounded=0;whiteSpace=wrap;html=1;fontSize=14;fontColor=#000000;gradientColor=none;" vertex="1" parent="1">
          <mxGeometry x="225" y="180" width="110" height="290" as="geometry" />
        </mxCell>
        <mxCell id="boY7fO-AjZwTI4k-ok0t-2" value="B8" style="rounded=0;whiteSpace=wrap;html=1;fontSize=14;fillColor=#dae8fc;strokeColor=#6c8ebf;gradientColor=none;" vertex="1" parent="1">
          <mxGeometry x="570" y="810" width="120" height="40" as="geometry" />
        </mxCell>
        <mxCell id="boY7fO-AjZwTI4k-ok0t-3" value="23" style="rounded=0;whiteSpace=wrap;html=1;fontSize=14;fillColor=#dae8fc;strokeColor=#6c8ebf;gradientColor=none;" vertex="1" parent="1">
          <mxGeometry x="570" y="850" width="120" height="40" as="geometry" />
        </mxCell>
        <mxCell id="boY7fO-AjZwTI4k-ok0t-4" value="01" style="rounded=0;whiteSpace=wrap;html=1;fontSize=14;fillColor=#dae8fc;strokeColor=#6c8ebf;gradientColor=none;" vertex="1" parent="1">
          <mxGeometry x="570" y="890" width="120" height="40" as="geometry" />
        </mxCell>
        <mxCell id="boY7fO-AjZwTI4k-ok0t-5" value="..." style="rounded=0;whiteSpace=wrap;html=1;fontSize=14;" vertex="1" parent="1">
          <mxGeometry x="570" y="930" width="120" height="40" as="geometry" />
        </mxCell>
        <mxCell id="boY7fO-AjZwTI4k-ok0t-6" value="..." style="rounded=0;whiteSpace=wrap;html=1;fontSize=14;" vertex="1" parent="1">
          <mxGeometry x="570" y="970" width="120" height="40" as="geometry" />
        </mxCell>
        <mxCell id="boY7fO-AjZwTI4k-ok0t-7" value="内存" style="text;html=1;strokeColor=none;fillColor=none;align=center;verticalAlign=middle;whiteSpace=wrap;rounded=0;fontSize=14;" vertex="1" parent="1">
          <mxGeometry x="600" y="770" width="60" height="30" as="geometry" />
        </mxCell>
        <mxCell id="boY7fO-AjZwTI4k-ok0t-8" value="20000" style="text;html=1;strokeColor=none;fillColor=none;align=center;verticalAlign=middle;whiteSpace=wrap;rounded=0;fontSize=14;fontColor=#3333FF;" vertex="1" parent="1">
          <mxGeometry x="500" y="815" width="60" height="30" as="geometry" />
        </mxCell>
        <mxCell id="boY7fO-AjZwTI4k-ok0t-11" value="20001" style="text;html=1;strokeColor=none;fillColor=none;align=center;verticalAlign=middle;whiteSpace=wrap;rounded=0;fontSize=14;fontColor=#3333FF;" vertex="1" parent="1">
          <mxGeometry x="500" y="855" width="60" height="30" as="geometry" />
        </mxCell>
        <mxCell id="boY7fO-AjZwTI4k-ok0t-12" value="20002" style="text;html=1;strokeColor=none;fillColor=none;align=center;verticalAlign=middle;whiteSpace=wrap;rounded=0;fontSize=14;fontColor=#3333FF;" vertex="1" parent="1">
          <mxGeometry x="500" y="900" width="60" height="30" as="geometry" />
        </mxCell>
        <mxCell id="boY7fO-AjZwTI4k-ok0t-17" value="内存" style="text;html=1;strokeColor=none;fillColor=none;align=center;verticalAlign=middle;whiteSpace=wrap;rounded=0;fontSize=14;" vertex="1" parent="1">
          <mxGeometry x="240" y="90" width="60" height="30" as="geometry" />
        </mxCell>
        <mxCell id="boY7fO-AjZwTI4k-ok0t-18" value="" style="rounded=0;whiteSpace=wrap;html=1;fontSize=14;fillColor=#cce5ff;strokeColor=#36393d;dashed=1;fontColor=#FF3399;" vertex="1" parent="1">
          <mxGeometry x="240" y="190" width="80" height="130" as="geometry" />
        </mxCell>
        <mxCell id="boY7fO-AjZwTI4k-ok0t-19" value="&lt;font style=&quot;font-size: 12px;&quot;&gt;指令一&lt;/font&gt;" style="text;html=1;strokeColor=none;fillColor=none;align=center;verticalAlign=middle;whiteSpace=wrap;rounded=0;dashed=1;fontSize=14;fontColor=#FF00FF;" vertex="1" parent="1">
          <mxGeometry x="249" y="200" width="60" height="20" as="geometry" />
        </mxCell>
        <mxCell id="boY7fO-AjZwTI4k-ok0t-26" value="进程" style="rounded=0;whiteSpace=wrap;html=1;fontSize=14;fontColor=#000000;gradientColor=none;" vertex="1" parent="1">
          <mxGeometry x="225" y="140" width="110" height="40" as="geometry" />
        </mxCell>
        <mxCell id="boY7fO-AjZwTI4k-ok0t-28" value="" style="rounded=0;whiteSpace=wrap;html=1;fontSize=14;fillColor=#cdeb8b;strokeColor=#36393d;dashed=1;" vertex="1" parent="1">
          <mxGeometry x="240" y="355" width="80" height="100" as="geometry" />
        </mxCell>
        <mxCell id="boY7fO-AjZwTI4k-ok0t-31" value="&lt;font style=&quot;font-size: 12px;&quot;&gt;指令二&lt;/font&gt;" style="text;html=1;strokeColor=none;fillColor=none;align=center;verticalAlign=middle;whiteSpace=wrap;rounded=0;dashed=1;fontSize=14;fontColor=#FF00FF;" vertex="1" parent="1">
          <mxGeometry x="249" y="220" width="60" height="20" as="geometry" />
        </mxCell>
        <mxCell id="boY7fO-AjZwTI4k-ok0t-32" value="&lt;span style=&quot;font-size: 12px;&quot;&gt;...&lt;/span&gt;" style="text;html=1;strokeColor=none;fillColor=none;align=center;verticalAlign=middle;whiteSpace=wrap;rounded=0;dashed=1;fontSize=14;fontColor=#FF3399;" vertex="1" parent="1">
          <mxGeometry x="250" y="240" width="60" height="20" as="geometry" />
        </mxCell>
        <mxCell id="boY7fO-AjZwTI4k-ok0t-33" value="&lt;span style=&quot;font-size: 12px;&quot;&gt;指令k&lt;/span&gt;" style="text;html=1;strokeColor=none;fillColor=none;align=center;verticalAlign=middle;whiteSpace=wrap;rounded=0;dashed=1;fontSize=14;fontColor=#FF00FF;" vertex="1" parent="1">
          <mxGeometry x="250" y="260" width="60" height="20" as="geometry" />
        </mxCell>
        <mxCell id="boY7fO-AjZwTI4k-ok0t-34" value="&lt;span style=&quot;font-size: 12px;&quot;&gt;...&lt;/span&gt;" style="text;html=1;strokeColor=none;fillColor=none;align=center;verticalAlign=middle;whiteSpace=wrap;rounded=0;dashed=1;fontSize=14;fontColor=#FF00FF;" vertex="1" parent="1">
          <mxGeometry x="250" y="280" width="60" height="20" as="geometry" />
        </mxCell>
        <mxCell id="boY7fO-AjZwTI4k-ok0t-35" value="&lt;span style=&quot;font-size: 12px;&quot;&gt;指令n&lt;/span&gt;" style="text;html=1;strokeColor=none;fillColor=none;align=center;verticalAlign=middle;whiteSpace=wrap;rounded=0;dashed=1;fontSize=14;fontColor=#FF00FF;" vertex="1" parent="1">
          <mxGeometry x="250" y="300" width="60" height="20" as="geometry" />
        </mxCell>
        <mxCell id="boY7fO-AjZwTI4k-ok0t-36" value="&lt;span style=&quot;font-size: 12px;&quot;&gt;数据1&lt;/span&gt;" style="text;html=1;strokeColor=none;fillColor=none;align=center;verticalAlign=middle;whiteSpace=wrap;rounded=0;dashed=1;fontSize=14;fontColor=#FF3399;" vertex="1" parent="1">
          <mxGeometry x="249" y="365" width="60" height="20" as="geometry" />
        </mxCell>
        <mxCell id="boY7fO-AjZwTI4k-ok0t-37" value="&lt;span style=&quot;font-size: 12px;&quot;&gt;数据2&lt;/span&gt;" style="text;html=1;strokeColor=none;fillColor=none;align=center;verticalAlign=middle;whiteSpace=wrap;rounded=0;dashed=1;fontSize=14;fontColor=#FF3399;" vertex="1" parent="1">
          <mxGeometry x="249" y="385" width="60" height="20" as="geometry" />
        </mxCell>
        <mxCell id="boY7fO-AjZwTI4k-ok0t-38" value="&lt;span style=&quot;font-size: 12px;&quot;&gt;...&lt;/span&gt;" style="text;html=1;strokeColor=none;fillColor=none;align=center;verticalAlign=middle;whiteSpace=wrap;rounded=0;dashed=1;fontSize=14;fontColor=#FF3399;" vertex="1" parent="1">
          <mxGeometry x="249" y="405" width="60" height="20" as="geometry" />
        </mxCell>
        <mxCell id="boY7fO-AjZwTI4k-ok0t-39" value="代&lt;br style=&quot;font-size: 14px;&quot;&gt;码&lt;br style=&quot;font-size: 14px;&quot;&gt;段" style="text;html=1;strokeColor=none;fillColor=none;align=center;verticalAlign=middle;whiteSpace=wrap;rounded=0;fontSize=14;fontColor=#FF00FF;" vertex="1" parent="1">
          <mxGeometry x="180" y="255" width="60" height="30" as="geometry" />
        </mxCell>
        <mxCell id="boY7fO-AjZwTI4k-ok0t-40" value="数&lt;br style=&quot;font-size: 14px;&quot;&gt;据&lt;br style=&quot;font-size: 14px;&quot;&gt;段" style="text;html=1;strokeColor=none;fillColor=none;align=center;verticalAlign=middle;whiteSpace=wrap;rounded=0;fontSize=14;fontColor=#FF3399;" vertex="1" parent="1">
          <mxGeometry x="180" y="385" width="60" height="30" as="geometry" />
        </mxCell>
        <mxCell id="boY7fO-AjZwTI4k-ok0t-42" value="" style="rounded=0;whiteSpace=wrap;html=1;fontSize=14;fontColor=#FF3399;gradientColor=none;" vertex="1" parent="1">
          <mxGeometry x="520" y="130" width="320" height="350" as="geometry" />
        </mxCell>
        <mxCell id="boY7fO-AjZwTI4k-ok0t-43" value="" style="rounded=0;whiteSpace=wrap;html=1;fontSize=14;fillColor=#cce5ff;strokeColor=#36393d;" vertex="1" parent="1">
          <mxGeometry x="530" y="150" width="290" height="110" as="geometry" />
        </mxCell>
        <mxCell id="boY7fO-AjZwTI4k-ok0t-55" style="edgeStyle=orthogonalEdgeStyle;rounded=0;orthogonalLoop=1;jettySize=auto;html=1;entryX=1.014;entryY=0.148;entryDx=0;entryDy=0;entryPerimeter=0;fontSize=14;fontColor=#FF00FF;fillColor=#33FF33;" edge="1" parent="1" source="boY7fO-AjZwTI4k-ok0t-44" target="boY7fO-AjZwTI4k-ok0t-47">
          <mxGeometry relative="1" as="geometry" />
        </mxCell>
        <mxCell id="boY7fO-AjZwTI4k-ok0t-44" value="指令计数器" style="rounded=0;whiteSpace=wrap;html=1;fontSize=14;fontColor=#FF00FF;gradientColor=none;" vertex="1" parent="1">
          <mxGeometry x="543" y="161" width="160" height="40" as="geometry" />
        </mxCell>
        <mxCell id="boY7fO-AjZwTI4k-ok0t-45" value="指令寄存器" style="rounded=0;whiteSpace=wrap;html=1;fontSize=14;fontColor=#FF00FF;gradientColor=none;" vertex="1" parent="1">
          <mxGeometry x="543" y="210" width="160" height="40" as="geometry" />
        </mxCell>
        <mxCell id="boY7fO-AjZwTI4k-ok0t-49" value="指令地址" style="text;html=1;strokeColor=none;fillColor=none;align=center;verticalAlign=middle;whiteSpace=wrap;rounded=0;fontSize=14;labelBackgroundColor=default;" vertex="1" parent="1">
          <mxGeometry x="410" y="164" width="60" height="30" as="geometry" />
        </mxCell>
        <mxCell id="boY7fO-AjZwTI4k-ok0t-51" value="&lt;span style=&quot;font-size: 12px;&quot;&gt;数据n&lt;/span&gt;" style="text;html=1;strokeColor=none;fillColor=none;align=center;verticalAlign=middle;whiteSpace=wrap;rounded=0;dashed=1;fontSize=14;fontColor=#FF3399;" vertex="1" parent="1">
          <mxGeometry x="249" y="425" width="60" height="20" as="geometry" />
        </mxCell>
        <mxCell id="boY7fO-AjZwTI4k-ok0t-52" value="存储单元" style="rounded=0;whiteSpace=wrap;html=1;fontSize=14;fontColor=#FF00FF;gradientColor=none;" vertex="1" parent="1">
          <mxGeometry x="535" y="320" width="100" height="145" as="geometry" />
        </mxCell>
        <mxCell id="boY7fO-AjZwTI4k-ok0t-53" value="控&lt;br&gt;制&lt;br&gt;单&lt;br&gt;元" style="text;html=1;strokeColor=none;fillColor=none;align=center;verticalAlign=middle;whiteSpace=wrap;rounded=0;labelBackgroundColor=none;comic=1;fontSize=14;fontColor=#FF00FF;" vertex="1" parent="1">
          <mxGeometry x="703" y="190" width="60" height="30" as="geometry" />
        </mxCell>
        <mxCell id="boY7fO-AjZwTI4k-ok0t-60" value="" style="shape=flexArrow;endArrow=classic;startArrow=classic;html=1;rounded=0;fontSize=14;fontColor=#FF00FF;fillColor=#EA6B66;width=21;startSize=5.39;" edge="1" parent="1">
          <mxGeometry width="100" height="100" relative="1" as="geometry">
            <mxPoint x="350" y="405" as="sourcePoint" />
            <mxPoint x="536" y="405" as="targetPoint" />
          </mxGeometry>
        </mxCell>
        <mxCell id="boY7fO-AjZwTI4k-ok0t-61" value="数据" style="edgeLabel;html=1;align=center;verticalAlign=middle;resizable=0;points=[];fontSize=14;fontColor=#33FF33;labelBackgroundColor=none;" vertex="1" connectable="0" parent="boY7fO-AjZwTI4k-ok0t-60">
          <mxGeometry x="0.0765" y="-3" relative="1" as="geometry">
            <mxPoint x="-7" y="-3" as="offset" />
          </mxGeometry>
        </mxCell>
        <mxCell id="boY7fO-AjZwTI4k-ok0t-62" value="" style="endArrow=classic;html=1;rounded=0;fontSize=14;fontColor=#FF00FF;fillColor=#33FF33;exitX=0.002;exitY=0.302;exitDx=0;exitDy=0;exitPerimeter=0;" edge="1" parent="1" source="boY7fO-AjZwTI4k-ok0t-52">
          <mxGeometry width="50" height="50" relative="1" as="geometry">
            <mxPoint x="490" y="364" as="sourcePoint" />
            <mxPoint x="350" y="364" as="targetPoint" />
          </mxGeometry>
        </mxCell>
        <mxCell id="boY7fO-AjZwTI4k-ok0t-63" value="操作数地址" style="text;html=1;strokeColor=none;fillColor=none;align=center;verticalAlign=middle;whiteSpace=wrap;rounded=0;fontSize=14;labelBackgroundColor=default;" vertex="1" parent="1">
          <mxGeometry x="410" y="348" width="80" height="30" as="geometry" />
        </mxCell>
        <mxCell id="boY7fO-AjZwTI4k-ok0t-64" value="运算单元" style="rounded=0;whiteSpace=wrap;html=1;fontSize=14;fontColor=#FF00FF;gradientColor=none;" vertex="1" parent="1">
          <mxGeometry x="720" y="320" width="100" height="145" as="geometry" />
        </mxCell>
        <mxCell id="boY7fO-AjZwTI4k-ok0t-67" value="" style="shape=flexArrow;endArrow=classic;startArrow=classic;html=1;rounded=0;fontSize=14;fontColor=#FF00FF;fillColor=#33FF33;entryX=0;entryY=0.5;entryDx=0;entryDy=0;" edge="1" parent="1" target="boY7fO-AjZwTI4k-ok0t-64">
          <mxGeometry width="100" height="100" relative="1" as="geometry">
            <mxPoint x="634" y="394.5" as="sourcePoint" />
            <mxPoint x="820" y="394.5" as="targetPoint" />
          </mxGeometry>
        </mxCell>
        <mxCell id="boY7fO-AjZwTI4k-ok0t-68" value="数据" style="edgeLabel;html=1;align=center;verticalAlign=middle;resizable=0;points=[];fontSize=14;fontColor=#FF00FF;" vertex="1" connectable="0" parent="boY7fO-AjZwTI4k-ok0t-67">
          <mxGeometry x="0.0765" y="-3" relative="1" as="geometry">
            <mxPoint as="offset" />
          </mxGeometry>
        </mxCell>
        <mxCell id="boY7fO-AjZwTI4k-ok0t-69" value="" style="endArrow=classic;html=1;rounded=0;fontSize=14;fontColor=#FF00FF;fillColor=#33FF33;" edge="1" parent="1">
          <mxGeometry width="50" height="50" relative="1" as="geometry">
            <mxPoint x="590" y="260" as="sourcePoint" />
            <mxPoint x="590" y="320" as="targetPoint" />
          </mxGeometry>
        </mxCell>
        <mxCell id="boY7fO-AjZwTI4k-ok0t-70" value="" style="endArrow=classic;html=1;rounded=0;fontSize=14;fontColor=#FF00FF;fillColor=#33FF33;" edge="1" parent="1">
          <mxGeometry width="50" height="50" relative="1" as="geometry">
            <mxPoint x="763" y="260" as="sourcePoint" />
            <mxPoint x="763" y="320" as="targetPoint" />
          </mxGeometry>
        </mxCell>
        <mxCell id="boY7fO-AjZwTI4k-ok0t-71" value="" style="shape=flexArrow;endArrow=classic;startArrow=classic;html=1;rounded=0;fontSize=14;fontColor=#FF00FF;fillColor=#EA6B66;width=21;startSize=5.39;" edge="1" parent="1">
          <mxGeometry width="100" height="100" relative="1" as="geometry">
            <mxPoint x="350" y="230" as="sourcePoint" />
            <mxPoint x="543" y="229.5" as="targetPoint" />
          </mxGeometry>
        </mxCell>
        <mxCell id="boY7fO-AjZwTI4k-ok0t-72" value="指令" style="edgeLabel;html=1;align=center;verticalAlign=middle;resizable=0;points=[];fontSize=14;fontColor=#33FF33;labelBackgroundColor=none;" vertex="1" connectable="0" parent="boY7fO-AjZwTI4k-ok0t-71">
          <mxGeometry x="0.0765" y="-3" relative="1" as="geometry">
            <mxPoint x="-7" y="-3" as="offset" />
          </mxGeometry>
        </mxCell>
      </root>
    </mxGraphModel>
  </diagram>
</mxfile>
